<svg width="48" height="29" viewBox="0 0 48 29" fill="none" xmlns="http://www.w3.org/2000/svg">
<rect width="48" height="28" rx="14" fill="#4B6BFB"/>
<g filter="url(#filter0_d_2147_4066)">
<rect x="22" y="2" width="24" height="24" rx="12" fill="white" shape-rendering="crispEdges"/>
<g clip-path="url(#clip0_2147_4066)">
<path d="M34 10.2266C33.8405 10.2266 33.6874 10.1632 33.5746 10.0504C33.4618 9.93755 33.3984 9.78454 33.3984 9.625V8.3125C33.3984 8.15296 33.4618 7.99995 33.5746 7.88713C33.6874 7.77432 33.8405 7.71094 34 7.71094C34.1595 7.71094 34.3126 7.77432 34.4254 7.88713C34.5382 7.99995 34.6016 8.15296 34.6016 8.3125V9.625C34.6016 9.78454 34.5382 9.93755 34.4254 10.0504C34.3126 10.1632 34.1595 10.2266 34 10.2266ZM34 20.2891C33.8405 20.2891 33.6874 20.2257 33.5746 20.1129C33.4618 20.0001 33.3984 19.847 33.3984 19.6875V18.375C33.3984 18.2155 33.4618 18.0624 33.5746 17.9496C33.6874 17.8368 33.8405 17.7734 34 17.7734C34.1595 17.7734 34.3126 17.8368 34.4254 17.9496C34.5382 18.0624 34.6016 18.2155 34.6016 18.375V19.6875C34.6016 19.847 34.5382 20.0001 34.4254 20.1129C34.3126 20.2257 34.1595 20.2891 34 20.2891ZM37.0937 11.5079C36.9747 11.5079 36.8584 11.4726 36.7595 11.4065C36.6606 11.3404 36.5835 11.2465 36.538 11.1366C36.4925 11.0267 36.4805 10.9058 36.5037 10.7891C36.5269 10.6725 36.5841 10.5653 36.6682 10.4811L37.5962 9.55309C37.7096 9.44272 37.8618 9.38143 38.0199 9.38247C38.1781 9.38351 38.3295 9.44681 38.4413 9.55865C38.5532 9.6705 38.6165 9.82189 38.6175 9.98006C38.6186 10.1382 38.5573 10.2904 38.4469 10.4038L37.5189 11.3318C37.4631 11.3877 37.3968 11.432 37.3238 11.4623C37.2509 11.4925 37.1727 11.508 37.0937 11.5079ZM29.9783 18.6233C29.8593 18.6233 29.743 18.588 29.6441 18.5218C29.5451 18.4557 29.4681 18.3618 29.4225 18.2518C29.377 18.1419 29.3651 18.0209 29.3884 17.9042C29.4116 17.7875 29.4689 17.6804 29.5531 17.5962L30.4811 16.6682C30.5367 16.6111 30.6031 16.5657 30.6764 16.5345C30.7497 16.5033 30.8284 16.4869 30.9081 16.4864C30.9878 16.4859 31.0667 16.5012 31.1404 16.5314C31.2141 16.5617 31.2811 16.6062 31.3374 16.6626C31.3938 16.7189 31.4383 16.7859 31.4686 16.8596C31.4988 16.9333 31.5141 17.0122 31.5136 17.0919C31.5131 17.1716 31.4967 17.2503 31.4655 17.3236C31.4343 17.3969 31.3889 17.4633 31.3318 17.5189L30.4038 18.4469C30.3479 18.5029 30.2816 18.5473 30.2086 18.5776C30.1356 18.6078 30.0573 18.6234 29.9783 18.6233ZM39.6875 14.6016H38.375C38.2155 14.6016 38.0624 14.5382 37.9496 14.4254C37.8368 14.3126 37.7734 14.1595 37.7734 14C37.7734 13.8405 37.8368 13.6874 37.9496 13.5746C38.0624 13.4618 38.2155 13.3984 38.375 13.3984H39.6875C39.847 13.3984 40.0001 13.4618 40.1129 13.5746C40.2257 13.6874 40.2891 13.8405 40.2891 14C40.2891 14.1595 40.2257 14.3126 40.1129 14.4254C40.0001 14.5382 39.847 14.6016 39.6875 14.6016ZM29.625 14.6016H28.3125C28.153 14.6016 27.9999 14.5382 27.8871 14.4254C27.7743 14.3126 27.7109 14.1595 27.7109 14C27.7109 13.8405 27.7743 13.6874 27.8871 13.5746C27.9999 13.4618 28.153 13.3984 28.3125 13.3984H29.625C29.7845 13.3984 29.9376 13.4618 30.0504 13.5746C30.1632 13.6874 30.2266 13.8405 30.2266 14C30.2266 14.1595 30.1632 14.3126 30.0504 14.4254C29.9376 14.5382 29.7845 14.6016 29.625 14.6016ZM38.0217 18.6233C37.9427 18.6234 37.8644 18.6078 37.7914 18.5776C37.7184 18.5473 37.6521 18.5029 37.5962 18.4469L36.6682 17.5189C36.5578 17.4056 36.4965 17.2533 36.4976 17.0952C36.4986 16.937 36.5619 16.7856 36.6738 16.6738C36.7856 16.5619 36.937 16.4986 37.0952 16.4976C37.2533 16.4965 37.4056 16.5578 37.5189 16.6682L38.4469 17.5962C38.5311 17.6804 38.5884 17.7875 38.6116 17.9042C38.6349 18.0209 38.623 18.1419 38.5775 18.2518C38.5319 18.3618 38.4549 18.4557 38.3559 18.5218C38.257 18.588 38.1407 18.6233 38.0217 18.6233ZM30.9063 11.5079C30.8273 11.508 30.7491 11.4926 30.6761 11.4623C30.6032 11.4321 30.5369 11.3878 30.4811 11.3318L29.5531 10.4038C29.4427 10.2904 29.3814 10.1382 29.3825 9.98006C29.3835 9.82189 29.4468 9.6705 29.5587 9.55865C29.6705 9.44681 29.8219 9.38351 29.9801 9.38247C30.1382 9.38143 30.2904 9.44272 30.4038 9.55309L31.3318 10.4811C31.4159 10.5653 31.4731 10.6725 31.4963 10.7891C31.5195 10.9058 31.5075 11.0267 31.462 11.1366C31.4165 11.2465 31.3394 11.3404 31.2405 11.4065C31.1416 11.4726 31.0253 11.5079 30.9063 11.5079ZM34 16.7891C33.4484 16.7891 32.9091 16.6255 32.4505 16.319C31.9918 16.0126 31.6343 15.577 31.4232 15.0673C31.2121 14.5577 31.1569 13.9969 31.2645 13.4559C31.3721 12.9149 31.6378 12.4179 32.0278 12.0278C32.4179 11.6378 32.9149 11.3721 33.4559 11.2645C33.9969 11.1569 34.5577 11.2121 35.0673 11.4232C35.577 11.6343 36.0126 11.9918 36.319 12.4505C36.6255 12.9091 36.7891 13.4484 36.7891 14C36.7882 14.7394 36.4941 15.4483 35.9712 15.9712C35.4483 16.4941 34.7394 16.7882 34 16.7891Z" fill="#52535F"/>
</g>
</g>
<defs>
<filter id="filter0_d_2147_4066" x="20" y="1" width="28" height="28" filterUnits="userSpaceOnUse" color-interpolation-filters="sRGB">
<feFlood flood-opacity="0" result="BackgroundImageFix"/>
<feColorMatrix in="SourceAlpha" type="matrix" values="0 0 0 0 0 0 0 0 0 0 0 0 0 0 0 0 0 0 127 0" result="hardAlpha"/>
<feOffset dy="1"/>
<feGaussianBlur stdDeviation="1"/>
<feComposite in2="hardAlpha" operator="out"/>
<feColorMatrix type="matrix" values="0 0 0 0 0 0 0 0 0 0 0 0 0 0 0 0 0 0 0.12 0"/>
<feBlend mode="normal" in2="BackgroundImageFix" result="effect1_dropShadow_2147_4066"/>
<feBlend mode="normal" in="SourceGraphic" in2="effect1_dropShadow_2147_4066" result="shape"/>
</filter>
<clipPath id="clip0_2147_4066">
<rect width="14" height="14" fill="white" transform="translate(27 7)"/>
</clipPath>
</defs>
</svg>
