<svg width="48" height="29" viewBox="0 0 48 29" fill="none" xmlns="http://www.w3.org/2000/svg">
<rect width="48" height="28" rx="14" fill="#E8E8EA"/>
<g filter="url(#filter0_d_2147_4203)">
<rect x="2" y="2" width="24" height="24" rx="12" fill="white" shape-rendering="crispEdges"/>
<g clip-path="url(#clip0_2147_4203)">
<path d="M14 10.2266C13.8405 10.2266 13.6874 10.1632 13.5746 10.0504C13.4618 9.93755 13.3984 9.78454 13.3984 9.625V8.3125C13.3984 8.15296 13.4618 7.99995 13.5746 7.88713C13.6874 7.77432 13.8405 7.71094 14 7.71094C14.1595 7.71094 14.3126 7.77432 14.4254 7.88713C14.5382 7.99995 14.6016 8.15296 14.6016 8.3125V9.625C14.6016 9.78454 14.5382 9.93755 14.4254 10.0504C14.3126 10.1632 14.1595 10.2266 14 10.2266ZM14 20.2891C13.8405 20.2891 13.6874 20.2257 13.5746 20.1129C13.4618 20.0001 13.3984 19.847 13.3984 19.6875V18.375C13.3984 18.2155 13.4618 18.0624 13.5746 17.9496C13.6874 17.8368 13.8405 17.7734 14 17.7734C14.1595 17.7734 14.3126 17.8368 14.4254 17.9496C14.5382 18.0624 14.6016 18.2155 14.6016 18.375V19.6875C14.6016 19.847 14.5382 20.0001 14.4254 20.1129C14.3126 20.2257 14.1595 20.2891 14 20.2891ZM17.0937 11.5079C16.9747 11.5079 16.8584 11.4726 16.7595 11.4065C16.6606 11.3404 16.5835 11.2465 16.538 11.1366C16.4925 11.0267 16.4805 10.9058 16.5037 10.7891C16.5269 10.6725 16.5841 10.5653 16.6682 10.4811L17.5962 9.55309C17.7096 9.44272 17.8618 9.38143 18.0199 9.38247C18.1781 9.38351 18.3295 9.44681 18.4413 9.55865C18.5532 9.6705 18.6165 9.82189 18.6175 9.98006C18.6186 10.1382 18.5573 10.2904 18.4469 10.4038L17.5189 11.3318C17.4631 11.3877 17.3968 11.432 17.3238 11.4623C17.2509 11.4925 17.1727 11.508 17.0937 11.5079ZM9.97828 18.6233C9.8593 18.6233 9.74299 18.588 9.64407 18.5218C9.54515 18.4557 9.46806 18.3618 9.42254 18.2518C9.37703 18.1419 9.36514 18.0209 9.38838 17.9042C9.41161 17.7875 9.46893 17.6804 9.55309 17.5962L10.4811 16.6682C10.5367 16.6111 10.6031 16.5657 10.6764 16.5345C10.7497 16.5033 10.8284 16.4869 10.9081 16.4864C10.9878 16.4859 11.0667 16.5012 11.1404 16.5314C11.2141 16.5617 11.2811 16.6062 11.3374 16.6626C11.3938 16.7189 11.4383 16.7859 11.4686 16.8596C11.4988 16.9333 11.5141 17.0122 11.5136 17.0919C11.5131 17.1716 11.4967 17.2503 11.4655 17.3236C11.4343 17.3969 11.3889 17.4633 11.3318 17.5189L10.4038 18.4469C10.3479 18.5029 10.2816 18.5473 10.2086 18.5776C10.1356 18.6078 10.0573 18.6234 9.97828 18.6233ZM19.6875 14.6016H18.375C18.2155 14.6016 18.0624 14.5382 17.9496 14.4254C17.8368 14.3126 17.7734 14.1595 17.7734 14C17.7734 13.8405 17.8368 13.6874 17.9496 13.5746C18.0624 13.4618 18.2155 13.3984 18.375 13.3984H19.6875C19.847 13.3984 20.0001 13.4618 20.1129 13.5746C20.2257 13.6874 20.2891 13.8405 20.2891 14C20.2891 14.1595 20.2257 14.3126 20.1129 14.4254C20.0001 14.5382 19.847 14.6016 19.6875 14.6016ZM9.625 14.6016H8.3125C8.15296 14.6016 7.99995 14.5382 7.88713 14.4254C7.77432 14.3126 7.71094 14.1595 7.71094 14C7.71094 13.8405 7.77432 13.6874 7.88713 13.5746C7.99995 13.4618 8.15296 13.3984 8.3125 13.3984H9.625C9.78454 13.3984 9.93755 13.4618 10.0504 13.5746C10.1632 13.6874 10.2266 13.8405 10.2266 14C10.2266 14.1595 10.1632 14.3126 10.0504 14.4254C9.93755 14.5382 9.78454 14.6016 9.625 14.6016ZM18.0217 18.6233C17.9427 18.6234 17.8644 18.6078 17.7914 18.5776C17.7184 18.5473 17.6521 18.5029 17.5962 18.4469L16.6682 17.5189C16.5578 17.4056 16.4965 17.2533 16.4976 17.0952C16.4986 16.937 16.5619 16.7856 16.6738 16.6738C16.7856 16.5619 16.937 16.4986 17.0952 16.4976C17.2533 16.4965 17.4056 16.5578 17.5189 16.6682L18.4469 17.5962C18.5311 17.6804 18.5884 17.7875 18.6116 17.9042C18.6349 18.0209 18.623 18.1419 18.5775 18.2518C18.5319 18.3618 18.4549 18.4557 18.3559 18.5218C18.257 18.588 18.1407 18.6233 18.0217 18.6233ZM10.9063 11.5079C10.8273 11.508 10.7491 11.4926 10.6761 11.4623C10.6032 11.4321 10.5369 11.3878 10.4811 11.3318L9.55309 10.4038C9.44272 10.2904 9.38143 10.1382 9.38247 9.98006C9.38351 9.82189 9.44681 9.6705 9.55865 9.55865C9.6705 9.44681 9.82189 9.38351 9.98006 9.38247C10.1382 9.38143 10.2904 9.44272 10.4038 9.55309L11.3318 10.4811C11.4159 10.5653 11.4731 10.6725 11.4963 10.7891C11.5195 10.9058 11.5075 11.0267 11.462 11.1366C11.4165 11.2465 11.3394 11.3404 11.2405 11.4065C11.1416 11.4726 11.0253 11.5079 10.9063 11.5079ZM14 16.7891C13.4484 16.7891 12.9091 16.6255 12.4505 16.319C11.9918 16.0126 11.6343 15.577 11.4232 15.0673C11.2121 14.5577 11.1569 13.9969 11.2645 13.4559C11.3721 12.9149 11.6378 12.4179 12.0278 12.0278C12.4179 11.6378 12.9149 11.3721 13.4559 11.2645C13.9969 11.1569 14.5577 11.2121 15.0673 11.4232C15.577 11.6343 16.0126 11.9918 16.319 12.4505C16.6255 12.9091 16.7891 13.4484 16.7891 14C16.7882 14.7394 16.4941 15.4483 15.9712 15.9712C15.4483 16.4941 14.7394 16.7882 14 16.7891Z" fill="#52535F"/>
</g>
</g>
<defs>
<filter id="filter0_d_2147_4203" x="0" y="1" width="28" height="28" filterUnits="userSpaceOnUse" color-interpolation-filters="sRGB">
<feFlood flood-opacity="0" result="BackgroundImageFix"/>
<feColorMatrix in="SourceAlpha" type="matrix" values="0 0 0 0 0 0 0 0 0 0 0 0 0 0 0 0 0 0 127 0" result="hardAlpha"/>
<feOffset dy="1"/>
<feGaussianBlur stdDeviation="1"/>
<feComposite in2="hardAlpha" operator="out"/>
<feColorMatrix type="matrix" values="0 0 0 0 0 0 0 0 0 0 0 0 0 0 0 0 0 0 0.12 0"/>
<feBlend mode="normal" in2="BackgroundImageFix" result="effect1_dropShadow_2147_4203"/>
<feBlend mode="normal" in="SourceGraphic" in2="effect1_dropShadow_2147_4203" result="shape"/>
</filter>
<clipPath id="clip0_2147_4203">
<rect width="14" height="14" fill="white" transform="translate(7 7)"/>
</clipPath>
</defs>
</svg>
